<svg width="100%" height="100%" viewBox="250 420 600 230" fill="none" xmlns="http://www.w3.org/2000/svg">
<g opacity="0.15">
<line x1="311.5" y1="219.5" x2="311.5" y2="931.5" stroke="black" stroke-width="3" stroke-linecap="round"/>
<line x1="562.5" y1="219.5" x2="562.5" y2="931.5" stroke="black" stroke-width="3" stroke-linecap="round"/>
<line x1="436.5" y1="219.5" x2="436.5" y2="931.5" stroke="black" stroke-width="3" stroke-linecap="round"/>
<line x1="687.5" y1="219.5" x2="687.5" y2="931.5" stroke="black" stroke-width="3" stroke-linecap="round"/>
<line x1="811.5" y1="218.5" x2="811.5" y2="931.5" stroke="black" stroke-width="3" stroke-linecap="round"/>
<line x1="118.5" y1="379.5" x2="1003.5" y2="379.5" stroke="black" stroke-width="3" stroke-linecap="round"/>
<line x1="117.5" y1="472.5" x2="1002.5" y2="472.5" stroke="black" stroke-width="3" stroke-linecap="round"/>
<line x1="118.5" y1="428.5" x2="1003.5" y2="428.5" stroke="black" stroke-width="3" stroke-linecap="round"/>
<line x1="118.5" y1="479.5" x2="1003.5" y2="479.5" stroke="black" stroke-width="3" stroke-linecap="round"/>
<line x1="118.5" y1="507.5" x2="1003.5" y2="507.5" stroke="black" stroke-width="3" stroke-linecap="round"/>
<line x1="118.5" y1="536.5" x2="1003.5" y2="536.5" stroke="black" stroke-width="3" stroke-linecap="round"/>
<line x1="118.5" y1="564.5" x2="1002.5" y2="564.5" stroke="black" stroke-width="3" stroke-linecap="round"/>
<line x1="119.5" y1="593.5" x2="1002.5" y2="593.5" stroke="black" stroke-width="3" stroke-linecap="round"/>
<line x1="119.5" y1="608.5" x2="1002.5" y2="608.5" stroke="black" stroke-width="3" stroke-linecap="round"/>
<line x1="118.5" y1="635.5" x2="1002.5" y2="635.5" stroke="black" stroke-width="3" stroke-linecap="round"/>
<line x1="117.5" y1="649.5" x2="1003.5" y2="649.5" stroke="black" stroke-width="3" stroke-linecap="round"/>
<line x1="118.5" y1="663.5" x2="1002.5" y2="663.5" stroke="black" stroke-width="3" stroke-linecap="round"/>
</g>
<path d="M374.134 623.16C374.134 626.608 376.077 629.009 378.859 629.009C380.746 629.009 382.117 627.923 382.689 626.113L383.966 626.513C383.165 628.819 381.336 630.191 378.859 630.191C375.372 630.191 372.819 627.332 372.819 623.16C372.819 618.987 375.372 616.129 378.859 616.129C381.336 616.129 383.165 617.501 383.966 619.806L382.689 620.206C382.117 618.396 380.746 617.31 378.859 617.31C376.077 617.31 374.134 619.711 374.134 623.16ZM393.46 623.16C393.46 618.987 396.014 616.129 399.519 616.129C403.025 616.129 405.598 618.987 405.598 623.16C405.598 627.332 403.025 630.191 399.519 630.191C396.014 630.191 393.46 627.332 393.46 623.16ZM404.264 623.16C404.264 619.692 402.32 617.31 399.519 617.31C396.738 617.31 394.775 619.692 394.775 623.16C394.775 626.628 396.738 629.009 399.519 629.009C402.32 629.009 404.264 626.628 404.264 623.16ZM426.684 616.32V630H425.541L417.557 618.206V630H416.261V616.32H417.729L425.388 627.675V616.32H426.684ZM436.775 627.047L437.842 626.227C438.623 627.999 440.262 629.028 442.225 629.028C444.168 629.028 445.692 627.999 445.692 626.265C445.692 624.379 444.016 624.036 441.882 623.522C439.69 622.988 437.575 622.436 437.575 619.921C437.575 617.634 439.595 616.129 442.053 616.129C444.454 616.129 446.073 617.272 446.816 618.93L445.768 619.673C445.102 618.244 443.958 617.291 442.034 617.291C440.243 617.291 438.871 618.339 438.871 619.825C438.871 621.483 440.338 621.826 442.339 622.321C444.625 622.874 447.007 623.35 447.007 626.17C447.007 628.628 444.797 630.191 442.186 630.191C439.805 630.191 437.614 628.971 436.775 627.047ZM462.554 630.171C459.582 630.171 457.296 628.361 457.296 624.589V616.32H458.61V624.551C458.61 627.599 460.306 628.971 462.554 628.971C464.803 628.971 466.498 627.599 466.498 624.551V616.32H467.813V624.589C467.813 628.361 465.527 630.171 462.554 630.171ZM479.097 630V616.32H480.43V628.838H487.575V630H479.097ZM505.397 617.482H500.558V630H499.243V617.482H494.404V616.32H505.397V617.482ZM513.753 623.16C513.753 618.987 516.306 616.129 519.812 616.129C523.318 616.129 525.89 618.987 525.89 623.16C525.89 627.332 523.318 630.191 519.812 630.191C516.306 630.191 513.753 627.332 513.753 623.16ZM524.557 623.16C524.557 619.692 522.613 617.31 519.812 617.31C517.031 617.31 515.068 619.692 515.068 623.16C515.068 626.628 517.031 629.009 519.812 629.009C522.613 629.009 524.557 626.628 524.557 623.16ZM537.888 623.903V630H536.554V616.32H541.585C544.366 616.32 546.138 617.596 546.138 620.111C546.138 622.321 544.671 623.636 542.347 623.865L546.386 630H544.843L540.86 623.903H537.888ZM537.888 622.741H541.489C543.623 622.741 544.824 621.788 544.824 620.111C544.824 618.396 543.623 617.482 541.489 617.482H537.888V622.741ZM558.362 616.32V630H557.028V616.32H558.362ZM573.987 616.32H575.435L580.77 630H579.398L577.855 626.018H571.548L570.005 630H568.671L573.987 616.32ZM574.692 617.844L571.986 624.856H577.398L574.692 617.844ZM603.34 616.32H612.01V617.482H604.674V622.34H610.904V623.503H604.674V628.838H612.01V630H603.34V616.32ZM644.525 630V627.466C643.991 629.009 642.391 630.191 640.333 630.191C636.884 630.191 634.331 627.352 634.331 623.179C634.331 619.006 636.884 616.129 640.39 616.129C642.905 616.129 644.734 617.501 645.535 619.787L644.239 620.206C643.687 618.377 642.315 617.31 640.39 617.31C637.589 617.31 635.646 619.711 635.646 623.16C635.646 626.628 637.589 629.028 640.409 629.028C642.829 629.028 644.43 627.123 644.468 624.284H640.257V623.122H645.763V630H644.525ZM656.983 616.32H665.653V617.482H658.317V622.34H664.548V623.503H658.317V628.838H665.653V630H656.983V616.32ZM674.874 627.047L675.941 626.227C676.722 627.999 678.36 629.028 680.323 629.028C682.266 629.028 683.791 627.999 683.791 626.265C683.791 624.379 682.114 624.036 679.98 623.522C677.789 622.988 675.674 622.436 675.674 619.921C675.674 617.634 677.693 616.129 680.151 616.129C682.552 616.129 684.172 617.272 684.915 618.93L683.867 619.673C683.2 618.244 682.057 617.291 680.132 617.291C678.341 617.291 676.969 618.339 676.969 619.825C676.969 621.483 678.437 621.826 680.437 622.321C682.724 622.874 685.105 623.35 685.105 626.17C685.105 628.628 682.895 630.191 680.285 630.191C677.903 630.191 675.712 628.971 674.874 627.047ZM704.912 617.482H700.072V630H698.757V617.482H693.918V616.32H704.912V617.482ZM723.875 630L722.065 625.313H716.406L714.577 630H713.453L718.807 616.358H719.798L725.018 630H723.875ZM719.893 619.406C719.855 619.279 719.798 619.108 719.722 618.892C719.645 618.676 719.569 618.447 719.493 618.206C719.417 617.964 719.34 617.749 719.264 617.558C719.201 617.774 719.131 617.996 719.055 618.225C718.991 618.454 718.921 618.669 718.845 618.873C718.782 619.076 718.718 619.26 718.655 619.425L716.787 624.322H721.722L719.893 619.406ZM715.949 614.871C715.974 614.516 716.038 614.211 716.139 613.957C716.241 613.69 716.368 613.468 716.521 613.29C716.686 613.099 716.876 612.96 717.092 612.871C717.321 612.769 717.568 612.718 717.835 612.718C718.14 612.718 718.413 612.782 718.655 612.909C718.909 613.036 719.144 613.182 719.36 613.347C719.575 613.512 719.791 613.658 720.007 613.785C720.223 613.912 720.446 613.976 720.674 613.976C720.966 613.976 721.214 613.887 721.417 613.709C721.621 613.519 721.754 613.188 721.817 612.718H722.541C722.478 613.392 722.275 613.919 721.932 614.3C721.601 614.681 721.17 614.871 720.636 614.871C720.344 614.871 720.071 614.808 719.817 614.681C719.575 614.554 719.34 614.408 719.112 614.243C718.896 614.078 718.68 613.931 718.464 613.804C718.261 613.677 718.032 613.614 717.778 613.614C717.499 613.614 717.264 613.709 717.073 613.9C716.883 614.078 716.749 614.401 716.673 614.871H715.949ZM734.057 623.16C734.057 618.987 736.611 616.129 740.116 616.129C743.622 616.129 746.195 618.987 746.195 623.16C746.195 627.332 743.622 630.191 740.116 630.191C736.611 630.191 734.057 627.332 734.057 623.16ZM744.861 623.16C744.861 619.692 742.917 617.31 740.116 617.31C737.335 617.31 735.372 619.692 735.372 623.16C735.372 626.628 737.335 629.009 740.116 629.009C742.917 629.009 744.861 626.628 744.861 623.16Z" fill="#142B42"/>
<path d="M774.898 480.477C786.975 481.611 795.992 487.117 801.949 496.672C807.102 505.255 810 518.858 810 535.052V540.072C810 555.133 807.746 565.174 803.076 574.566C800.178 580.396 796.314 585.093 791.644 588.493C786.975 591.894 781.339 593.838 774.898 594.485V594.647H767.331C759.441 594.647 752.678 592.866 747.204 589.303C742.051 586.064 738.026 581.368 734.967 575.376C729.975 565.983 727.56 555.619 727.56 540.072V535.052C727.56 518.372 730.619 504.445 736.094 495.862C739.475 490.68 743.822 486.793 749.136 484.202C754.288 481.611 760.407 480.315 767.331 480.315H774.898V480.477ZM767.331 494.566C755.738 494.566 749.458 502.664 746.399 509.465C742.212 518.372 741.89 531.328 741.89 535.052V540.072C741.89 547.684 742.212 555.457 745.594 563.878C749.619 574.566 757.026 579.91 767.331 579.91H770.229C780.534 579.91 787.941 574.566 791.966 563.878C795.347 555.457 795.831 547.684 795.831 540.072V535.052C795.831 531.328 795.508 518.372 791.161 509.465C788.102 502.664 781.822 494.566 770.229 494.566H767.331Z" fill="#142B42"/>
<path d="M716.03 539.587V544.769H716.191L716.03 547.198C716.03 564.04 712.648 573.919 706.047 582.016C699.445 590.113 689.301 594.162 675.132 594.162C668.047 594.162 661.606 593.028 656.132 590.923C650.657 588.818 645.988 585.417 642.445 581.044C638.742 576.672 636.005 571.166 634.233 564.526C632.462 558.21 631.657 552.866 631.657 544.445V530.194C631.657 513.19 635.361 502.502 642.606 493.757C649.852 485.012 660.801 480.478 675.132 480.478C684.631 480.478 691.877 481.773 697.674 484.526C702.987 487.117 706.208 490.518 708.945 493.919L710.394 495.7L699.445 504.931L697.835 502.988C694.936 499.263 691.394 494.567 675.132 494.567C654.683 494.567 645.988 503.635 645.988 530.194V537.32V544.445C645.988 556.915 648.403 564.364 653.555 570.68C658.386 576.834 665.632 580.073 675.132 580.073C691.072 580.073 701.377 571.166 702.021 553.514H676.75C673.989 553.514 671.75 551.275 671.75 548.514V544.587C671.75 541.825 673.989 539.587 676.75 539.587H716.03Z" fill="#142B42"/>
<path d="M598.405 594.324V554.81H551.872V594.324H537.863V480.64H549.939H581.499C590.032 480.64 597.761 484.04 603.558 490.032C609.354 496.024 612.575 504.121 612.575 512.704V594.324H598.405ZM598.405 540.559V515.619C598.405 505.093 590.354 495.215 581.016 494.567L580.049 494.405H579.405H559.117H551.872V525.559C551.872 533.843 558.587 540.559 566.872 540.559H598.405Z" fill="#142B42"/>
<path d="M461.128 530.194L502.509 480.802H515.39V594.162H501.221V505.579L469.018 542.988L468.432 543.589C464.393 547.733 457.69 547.593 453.827 543.285L453.56 542.988L421.679 505.093V594.162H407.51V480.802H420.391L461.128 530.194Z" fill="#142B42"/>
<path d="M370.876 594.324V554.81H324.342V594.324H310.334V480.64H322.41H353.969C362.503 480.64 370.232 484.04 376.028 490.032C381.825 496.024 385.045 504.121 385.045 512.704V594.324H370.876ZM370.876 540.559V515.619C370.876 505.093 362.825 495.215 353.486 494.567L352.52 494.405H351.876H331.588H324.342V525.559C324.342 533.843 331.058 540.559 339.342 540.559H370.876Z" fill="#142B42"/>
<path d="M356 474H310V470H356V474Z" fill="#142B42"/>
</svg>
